<svg width="258" height="75" viewBox="0 0 258 75" fill="none" xmlns="http://www.w3.org/2000/svg">
<path d="M187.749 36.8801C187.158 36.3477 186.684 36.4463 185.929 37.2152C185.401 35.7809 185.672 33.3404 187.112 32.3548C188.404 31.47 189.723 31.6897 191.035 32.2115C191.558 32.4197 192.051 32.7669 192.559 33.0504C192.607 32.6232 192.598 32.6093 191.804 31.9323C192.221 31.3418 192.607 30.7315 193.041 30.1954C194.463 28.4354 195.913 26.7158 197.333 24.9523C198.122 23.9727 198.854 22.9086 199.643 21.9301C200.532 20.8301 201.455 19.7833 202.366 18.718C202.617 18.425 202.751 18.1622 202.702 17.6181C202.503 15.3826 203.341 13.3645 204.883 12.3419C205.732 11.779 206.648 11.406 207.498 10.8467C208.982 9.87036 210.093 8.40212 210.54 6.15722C210.588 5.91756 210.608 5.66749 210.733 5.33867C211.002 6.00892 211.359 6.63979 211.523 7.35521C212.466 11.4672 212.311 15.3907 210.22 18.8608C209.422 20.1866 208.302 20.8155 207.071 20.7845C206.261 20.7639 205.718 21.2039 205.247 21.9612C204.571 23.0484 203.916 24.16 203.266 25.2773C203.21 25.3734 203.223 25.6501 203.284 25.7497C204.682 28.0115 205.461 30.637 205.747 33.5451C206.093 37.0702 205.572 40.3849 204.131 43.3177C201.995 47.6665 198.957 49.8322 195.086 49.7914C193.183 49.771 191.323 49.1058 190.338 48.4728C190.495 48.2389 190.643 48.0189 190.789 47.8001C191.409 46.8749 192.035 45.9555 192.647 45.0211C192.815 44.7664 192.956 44.683 193.225 44.7802C195.236 45.5021 197.215 45.4426 199.054 43.9892C201.361 42.1653 202.538 39.3587 202.667 35.7455C202.751 33.4046 202.291 31.249 201.353 29.2846C201.299 29.1712 201.244 29.0601 201.189 28.9478C201.166 28.9015 201.142 28.8552 201.083 28.7394C200.843 29.1574 200.626 29.5221 200.42 29.8973C199.187 32.1493 197.953 34.4025 196.727 36.6626C196.597 36.9023 196.367 37.1571 196.63 37.5113C196.873 37.8365 197.144 37.9997 197.404 37.6211C197.96 36.8094 198.524 35.9988 199.017 35.1189C199.675 33.946 200.27 32.7082 200.912 31.4601C201.45 33.0263 201.538 34.6424 201.431 36.291C201.31 38.1307 200.731 39.6752 199.773 40.9767C198.257 43.0366 196.201 43.1239 194.448 41.6182C193.773 41.0395 193.794 41.0117 193.271 41.8292C189.249 48.1118 184.711 53.5657 179.423 57.8088C178.999 58.1493 178.549 58.4458 178.091 58.6913C177.66 58.923 177.437 58.6255 177.528 58.0003C177.561 57.7757 177.618 57.5546 177.678 57.3404C178.975 52.6838 180.778 48.4137 182.965 44.4307C184.279 42.0362 185.699 39.7703 187.255 37.6605C187.431 37.4209 187.583 37.1453 187.75 36.8813L187.749 36.8801ZM186.792 33.9514C187.958 33.7277 189.012 34.1546 190.026 34.8594C191.225 35.6938 192.207 36.8987 193.146 38.1928C193.719 38.9834 194.328 39.7427 194.983 40.4025C195.45 40.8724 196.021 41.1512 196.545 41.5146C196.167 41.0829 195.723 40.8214 195.338 40.4464C194.951 40.0679 194.607 39.5991 194.273 39.1315C193.801 38.4694 193.364 37.7598 192.895 37.0919C191.763 35.4795 190.494 34.1612 188.835 33.7344C188.141 33.5551 187.442 33.4291 186.792 33.9514ZM209.608 9.89221C209.583 9.86095 209.558 9.82854 209.534 9.79729C209.264 10.125 209.002 10.4654 208.724 10.7792C207.899 11.7102 206.908 12.1747 205.905 12.594C205.143 12.9126 204.472 13.4082 203.956 14.257C203.582 14.873 203.355 15.6637 203.424 16.2773C203.994 14.2651 205.172 13.349 206.53 12.7328C207.313 12.3772 208.065 11.9371 208.687 11.1763C209.013 10.7768 209.302 10.3218 209.608 9.89221ZM193.11 31.1482C193.151 31.2049 193.192 31.2616 193.233 31.3172C194.946 29.2908 196.66 27.2644 198.375 25.238C198.367 25.1824 198.36 25.1269 198.353 25.0701C198.237 25.1026 198.089 25.0841 198.01 25.1756C196.621 26.7874 195.234 28.4051 193.86 30.0401C193.584 30.3678 193.36 30.7754 193.111 31.1459L193.11 31.1482ZM207.719 13.5151C207.698 13.47 207.676 13.4248 207.655 13.3797C206.811 14.0965 205.826 14.5228 205.188 15.6586C206.032 14.9441 206.876 14.2296 207.719 13.5151ZM209.558 15.4203C209.247 15.7978 208.957 16.2146 208.62 16.5423C208.274 16.8793 207.883 17.1306 207.511 17.419C208.411 17.1779 209.071 16.4681 209.558 15.4203ZM185.322 42.4701C184.94 42.5929 184.335 43.4718 184.295 44.0599C184.618 43.5585 184.942 43.0583 185.322 42.4701Z" fill="#6157F8"/>
<path d="M196.717 23.552C196.03 24.4158 195.361 25.136 194.803 25.9917C194.178 26.9505 193.562 27.2273 192.568 27.0527C189.556 26.5232 187.122 28.0855 185.491 31.6019C184.578 33.5702 184.419 35.8023 184.868 38.0644C184.97 38.5737 184.909 38.9118 184.656 39.2951C184.034 40.2364 183.443 41.2171 182.804 42.2384C182.164 40.5367 181.644 38.8362 181.549 36.9457C181.383 33.6856 181.833 30.6291 183.349 28.0251C185.471 24.3824 188.238 22.3234 191.681 22.1454C193.218 22.0663 194.722 22.411 196.163 23.1805C196.33 23.2696 196.485 23.3957 196.717 23.552ZM192.88 23.6224C190.493 22.3576 184.594 25.7372 183.995 28.7358C186.369 25.1162 189.362 23.5248 192.88 23.6224Z" fill="#6157F8"/>
<path d="M40.2729 25.3252H24.3252V58H17.0889V25.3252H1.11328V18.0889H40.2729V25.3252ZM84.96 31.5039C84.96 33.1553 84.7559 34.6304 84.3477 35.9292C83.9395 37.228 83.3829 38.3784 82.6778 39.3804C81.9912 40.3638 81.1934 41.208 80.2842 41.9131C79.375 42.6182 78.4195 43.2026 77.4175 43.6665C76.4341 44.1118 75.4322 44.4365 74.4117 44.6406C73.4097 44.8447 72.4634 44.9468 71.5728 44.9468L86.6856 58H75.4971L60.4121 44.9468H55.2076V37.7104H71.5728C72.482 37.6362 73.3077 37.4507 74.0498 37.1538C74.8106 36.8384 75.46 36.4209 75.9981 35.9014C76.5547 35.3818 76.9815 34.7603 77.2784 34.0366C77.5752 33.2944 77.7237 32.4502 77.7237 31.5039V26.9395C77.7237 26.5312 77.668 26.2251 77.5567 26.021C77.4639 25.7983 77.334 25.6406 77.167 25.5479C77.0186 25.4365 76.8516 25.3716 76.6661 25.353C76.4991 25.3345 76.3413 25.3252 76.1929 25.3252H52.313V58H45.0767V21.7349C45.0767 21.2339 45.1695 20.7607 45.355 20.3154C45.5406 19.8701 45.7911 19.4805 46.1065 19.1465C46.4405 18.8125 46.8301 18.5527 47.2754 18.3672C47.7207 18.1816 48.2032 18.0889 48.7227 18.0889H76.1929C77.8072 18.0889 79.1709 18.3857 80.2842 18.9795C81.3975 19.5547 82.2974 20.2876 82.9839 21.1782C83.689 22.0503 84.19 22.9966 84.4869 24.0171C84.8023 25.0376 84.96 25.9932 84.96 26.8838V31.5039ZM130.788 54.354C130.788 54.8735 130.695 55.356 130.51 55.8013C130.324 56.2466 130.065 56.6362 129.731 56.9702C129.397 57.2856 129.007 57.5361 128.562 57.7217C128.116 57.9072 127.643 58 127.142 58H110.833C109.293 58 107.734 57.833 106.157 57.499C104.58 57.165 103.049 56.6548 101.565 55.9683C100.099 55.2632 98.7164 54.3726 97.4176 53.2964C96.1187 52.2202 94.9776 50.9492 93.9942 49.4834C93.0294 47.999 92.2686 46.3105 91.712 44.418C91.1553 42.5068 90.877 40.3823 90.877 38.0444V18.0889H98.1134V38.0444C98.1134 40.0854 98.3917 41.811 98.9483 43.2212C99.5235 44.6313 100.247 45.8096 101.119 46.7559C101.991 47.7021 102.947 48.4443 103.986 48.9824C105.025 49.5205 106.008 49.9194 106.936 50.1792C107.882 50.439 108.708 50.606 109.413 50.6802C110.137 50.7358 110.61 50.7637 110.833 50.7637H123.552V18.0889H130.788V54.354ZM178.62 18.0889L159.722 56.5806C159.425 57.1743 158.98 57.6475 158.386 58C157.811 58.3711 157.171 58.5566 156.466 58.5566C155.779 58.5566 155.139 58.3711 154.546 58C153.97 57.6475 153.525 57.1743 153.21 56.5806L134.339 18.0889H142.439L156.466 46.8394L170.549 18.0889H178.62ZM255.793 46.2549C255.793 47.6836 255.607 48.9731 255.236 50.1235C254.884 51.2554 254.41 52.2573 253.817 53.1294C253.223 54.0015 252.527 54.7437 251.729 55.356C250.931 55.9683 250.106 56.4692 249.252 56.8589C248.399 57.2485 247.527 57.5361 246.636 57.7217C245.764 57.9072 244.938 58 244.159 58H216.243V50.7637H244.159C245.551 50.7637 246.627 50.3555 247.387 49.5391C248.167 48.7227 248.556 47.6279 248.556 46.2549C248.556 45.5869 248.454 44.9746 248.25 44.418C248.046 43.8613 247.749 43.3789 247.36 42.9707C246.989 42.5625 246.525 42.2471 245.968 42.0244C245.43 41.8018 244.827 41.6904 244.159 41.6904H227.515C226.346 41.6904 225.085 41.4863 223.73 41.0781C222.376 40.6514 221.114 39.9741 219.945 39.0464C218.795 38.1187 217.83 36.9033 217.051 35.4004C216.29 33.8975 215.909 32.0605 215.909 29.8896C215.909 27.7188 216.29 25.8911 217.051 24.4067C217.83 22.9038 218.795 21.6885 219.945 20.7607C221.114 19.8145 222.376 19.1372 223.73 18.729C225.085 18.3022 226.346 18.0889 227.515 18.0889H252.147V25.3252H227.515C226.142 25.3252 225.066 25.7427 224.287 26.5776C223.526 27.4126 223.146 28.5166 223.146 29.8896C223.146 31.2812 223.526 32.3853 224.287 33.2017C225.066 33.9995 226.142 34.3984 227.515 34.3984H244.159H244.215C244.994 34.417 245.82 34.5283 246.692 34.7324C247.564 34.918 248.426 35.2148 249.28 35.623C250.152 36.0312 250.978 36.5508 251.757 37.1816C252.536 37.7939 253.223 38.5361 253.817 39.4082C254.429 40.2803 254.911 41.2822 255.264 42.4141C255.616 43.5459 255.793 44.8262 255.793 46.2549Z" fill="#6157F8"/>
</svg>
