<svg width="258" height="75" viewBox="0 0 258 75" fill="none" xmlns="http://www.w3.org/2000/svg">
<path d="M186.246 36.8806C185.528 36.3482 184.953 36.4468 184.038 37.2157C183.397 35.7815 183.726 33.3409 185.473 32.3553C187.041 31.4704 188.641 31.69 190.233 32.2118C190.868 32.42 191.465 32.7672 192.082 33.0506C192.141 32.6234 192.129 32.6095 191.166 31.9325C191.672 31.342 192.14 30.7317 192.667 30.1956C194.393 28.4355 196.152 26.7159 197.875 24.9523C198.832 23.9726 199.721 22.9085 200.679 21.93C201.757 20.8299 202.877 19.783 203.983 18.7177C204.287 18.4247 204.45 18.1619 204.391 17.6178C204.149 15.3823 205.166 13.3642 207.038 12.3415C208.067 11.7786 209.178 11.4055 210.21 10.8461C212.01 9.86972 213.359 8.40142 213.902 6.15649C213.96 5.91683 213.984 5.66676 214.136 5.33794C214.462 6.00817 214.896 6.63902 215.095 7.35444C216.239 11.4663 216.05 15.3898 213.513 18.8601C212.544 20.1859 211.185 20.8149 209.691 20.784C208.709 20.7634 208.049 21.2035 207.479 21.9607C206.658 23.048 205.863 24.1596 205.075 25.277C205.007 25.3731 205.022 25.6498 205.096 25.7493C206.792 28.0111 207.738 30.6365 208.085 33.5446C208.505 37.0697 207.872 40.3844 206.123 43.3173C203.532 47.6662 199.845 49.832 195.148 49.7915C192.838 49.7712 190.582 49.1061 189.387 48.4731C189.577 48.2392 189.756 48.0192 189.935 47.8003C190.687 46.8752 191.446 45.9558 192.189 45.0213C192.392 44.7666 192.563 44.6832 192.89 44.7803C195.33 45.5022 197.731 45.4425 199.963 43.9891C202.763 42.165 204.191 39.3584 204.348 35.7451C204.449 33.4042 203.891 31.2487 202.753 29.2844C202.688 29.1709 202.621 29.0598 202.554 28.9475C202.526 28.9012 202.497 28.8549 202.425 28.7392C202.135 29.1572 201.871 29.5219 201.622 29.8971C200.124 32.1492 198.627 34.4024 197.139 36.6626C196.982 36.9023 196.702 37.1571 197.022 37.5113C197.317 37.8365 197.646 37.9997 197.961 37.621C198.636 36.8093 199.32 35.9987 199.919 35.1187C200.717 33.9458 201.439 32.708 202.218 31.4598C202.87 33.026 202.978 34.6422 202.847 36.2908C202.701 38.1304 201.999 39.675 200.835 40.9765C198.996 43.0365 196.501 43.1239 194.374 41.6183C193.555 41.0396 193.581 41.0118 192.946 41.8293C188.066 48.1122 182.559 53.5663 176.142 57.8097C175.627 58.1502 175.082 58.4467 174.525 58.6923C174.003 58.924 173.733 58.6265 173.843 58.0013C173.883 57.7767 173.952 57.5556 174.025 57.3414C175.599 52.6847 177.787 48.4145 180.44 44.4314C182.035 42.0369 183.758 39.7708 185.646 37.661C185.86 37.4213 186.045 37.1458 186.247 36.8817L186.246 36.8806ZM185.085 33.9519C186.5 33.7281 187.779 34.155 189.009 34.8597C190.464 35.6941 191.655 36.899 192.794 38.193C193.49 38.9836 194.228 39.7428 195.023 40.4025C195.59 40.8724 196.283 41.1513 196.919 41.5146C196.46 41.0829 195.922 40.8214 195.455 40.4464C194.985 40.068 194.567 39.5992 194.162 39.1316C193.589 38.4695 193.059 37.76 192.49 37.0921C191.117 35.4797 189.576 34.1615 187.563 33.7348C186.721 33.5555 185.874 33.4296 185.085 33.9519ZM212.77 9.89153C212.74 9.86028 212.71 9.82787 212.68 9.79662C212.354 10.1243 212.035 10.4648 211.698 10.7786C210.697 11.7096 209.494 12.1742 208.277 12.5935C207.353 12.9121 206.538 13.4078 205.913 14.2566C205.458 14.8726 205.183 15.6634 205.267 16.2769C205.958 14.2647 207.388 13.3486 209.035 12.7323C209.986 12.3766 210.899 11.9365 211.653 11.1757C212.049 10.7762 212.399 10.3211 212.77 9.89153ZM192.751 31.1484C192.801 31.2051 192.85 31.2618 192.9 31.3174C194.98 29.2909 197.059 27.2644 199.14 25.2379C199.13 25.1823 199.122 25.1268 199.113 25.07C198.973 25.1025 198.793 25.084 198.698 25.1755C197.012 26.7874 195.329 28.4051 193.661 30.0402C193.326 30.3679 193.054 30.7755 192.753 31.1461L192.751 31.1484ZM210.478 13.5145C210.453 13.4694 210.426 13.4243 210.4 13.3791C209.377 14.096 208.181 14.5223 207.407 15.6582C208.431 14.9436 209.455 14.2291 210.478 13.5145ZM212.709 15.4196C212.332 15.7971 211.981 16.214 211.572 16.5417C211.151 16.8787 210.677 17.13 210.226 17.4184C211.318 17.1773 212.119 16.4675 212.709 15.4196ZM183.301 42.4707C182.837 42.5935 182.102 43.4724 182.054 44.0605C182.447 43.5592 182.839 43.0589 183.301 42.4707Z" fill="#6157F8"/>
<path d="M197.128 23.552C196.294 24.4158 195.482 25.1361 194.805 25.9918C194.047 26.9506 193.3 27.2274 192.094 27.0529C188.439 26.5236 185.485 28.086 183.506 31.6025C182.398 33.5708 182.206 35.8029 182.75 38.065C182.873 38.5743 182.8 38.9124 182.493 39.2957C181.738 40.2371 181.02 41.2178 180.245 42.2391C179.469 40.5375 178.838 38.8369 178.722 36.9464C178.522 33.6864 179.067 30.6299 180.908 28.0258C183.483 24.383 186.839 22.3238 191.018 22.1457C192.882 22.0665 194.708 22.411 196.456 23.1805C196.658 23.2696 196.847 23.3957 197.128 23.552ZM192.472 23.6225C189.576 22.3579 182.418 25.7378 181.691 28.7364C184.571 25.1167 188.203 23.5252 192.472 23.6225Z" fill="#6157F8"/>
<path d="M40.2729 25.3252H24.3252V58H17.0889V25.3252H1.11328V18.0889H40.2729V25.3252ZM84.96 31.5039C84.96 33.1553 84.7559 34.6304 84.3477 35.9292C83.9395 37.228 83.3829 38.3784 82.6778 39.3804C81.9912 40.3638 81.1934 41.208 80.2842 41.9131C79.375 42.6182 78.4195 43.2026 77.4175 43.6665C76.4341 44.1118 75.4322 44.4365 74.4117 44.6406C73.4097 44.8447 72.4634 44.9468 71.5728 44.9468L86.6856 58H75.4971L60.4121 44.9468H55.2076V37.7104H71.5728C72.482 37.6362 73.3077 37.4507 74.0498 37.1538C74.8106 36.8384 75.46 36.4209 75.9981 35.9014C76.5547 35.3818 76.9815 34.7603 77.2784 34.0366C77.5752 33.2944 77.7237 32.4502 77.7237 31.5039V26.9395C77.7237 26.5312 77.668 26.2251 77.5567 26.021C77.4639 25.7983 77.334 25.6406 77.167 25.5479C77.0186 25.4365 76.8516 25.3716 76.6661 25.353C76.4991 25.3345 76.3413 25.3252 76.1929 25.3252H52.313V58H45.0767V21.7349C45.0767 21.2339 45.1695 20.7607 45.355 20.3154C45.5406 19.8701 45.7911 19.4805 46.1065 19.1465C46.4405 18.8125 46.8301 18.5527 47.2754 18.3672C47.7207 18.1816 48.2032 18.0889 48.7227 18.0889H76.1929C77.8072 18.0889 79.1709 18.3857 80.2842 18.9795C81.3975 19.5547 82.2974 20.2876 82.9839 21.1782C83.689 22.0503 84.19 22.9966 84.4869 24.0171C84.8023 25.0376 84.96 25.9932 84.96 26.8838V31.5039ZM130.788 54.354C130.788 54.8735 130.695 55.356 130.51 55.8013C130.324 56.2466 130.065 56.6362 129.731 56.9702C129.397 57.2856 129.007 57.5361 128.562 57.7217C128.116 57.9072 127.643 58 127.142 58H110.833C109.293 58 107.734 57.833 106.157 57.499C104.58 57.165 103.049 56.6548 101.565 55.9683C100.099 55.2632 98.7164 54.3726 97.4176 53.2964C96.1187 52.2202 94.9776 50.9492 93.9942 49.4834C93.0294 47.999 92.2686 46.3105 91.712 44.418C91.1553 42.5068 90.877 40.3823 90.877 38.0444V18.0889H98.1134V38.0444C98.1134 40.0854 98.3917 41.811 98.9483 43.2212C99.5235 44.6313 100.247 45.8096 101.119 46.7559C101.991 47.7021 102.947 48.4443 103.986 48.9824C105.025 49.5205 106.008 49.9194 106.936 50.1792C107.882 50.439 108.708 50.606 109.413 50.6802C110.137 50.7358 110.61 50.7637 110.833 50.7637H123.552V18.0889H130.788V54.354ZM178.62 18.0889L159.722 56.5806C159.425 57.1743 158.98 57.6475 158.386 58C157.811 58.3711 157.171 58.5566 156.466 58.5566C155.779 58.5566 155.139 58.3711 154.546 58C153.97 57.6475 153.525 57.1743 153.21 56.5806L134.339 18.0889H142.439L156.466 46.8394L170.549 18.0889H178.62ZM255.793 46.2549C255.793 47.6836 255.607 48.9731 255.236 50.1235C254.884 51.2554 254.41 52.2573 253.817 53.1294C253.223 54.0015 252.527 54.7437 251.729 55.356C250.931 55.9683 250.106 56.4692 249.252 56.8589C248.399 57.2485 247.527 57.5361 246.636 57.7217C245.764 57.9072 244.938 58 244.159 58H216.243V50.7637H244.159C245.551 50.7637 246.627 50.3555 247.387 49.5391C248.167 48.7227 248.556 47.6279 248.556 46.2549C248.556 45.5869 248.454 44.9746 248.25 44.418C248.046 43.8613 247.749 43.3789 247.36 42.9707C246.989 42.5625 246.525 42.2471 245.968 42.0244C245.43 41.8018 244.827 41.6904 244.159 41.6904H227.515C226.346 41.6904 225.085 41.4863 223.73 41.0781C222.376 40.6514 221.114 39.9741 219.945 39.0464C218.795 38.1187 217.83 36.9033 217.051 35.4004C216.29 33.8975 215.909 32.0605 215.909 29.8896C215.909 27.7188 216.29 25.8911 217.051 24.4067C217.83 22.9038 218.795 21.6885 219.945 20.7607C221.114 19.8145 222.376 19.1372 223.73 18.729C225.085 18.3022 226.346 18.0889 227.515 18.0889H252.147V25.3252H227.515C226.142 25.3252 225.066 25.7427 224.287 26.5776C223.526 27.4126 223.146 28.5166 223.146 29.8896C223.146 31.2812 223.526 32.3853 224.287 33.2017C225.066 33.9995 226.142 34.3984 227.515 34.3984H244.159H244.215C244.994 34.417 245.82 34.5283 246.692 34.7324C247.564 34.918 248.426 35.2148 249.28 35.623C250.152 36.0312 250.978 36.5508 251.757 37.1816C252.536 37.7939 253.223 38.5361 253.817 39.4082C254.429 40.2803 254.911 41.2822 255.264 42.4141C255.616 43.5459 255.793 44.8262 255.793 46.2549Z" fill="#6157F8"/>
</svg>
