<svg width="413" height="111" viewBox="0 0 413 111" fill="none" xmlns="http://www.w3.org/2000/svg">
<path d="M278.292 59.2794C277.142 58.996 276.49 59.4109 275.765 60.8193C274.247 59.3946 273.4 56.243 275.03 54.1438C276.495 52.2591 278.562 51.7085 280.775 51.5314C281.658 51.4608 282.566 51.579 283.465 51.6099C283.318 51.0577 283.297 51.0465 281.773 50.712C282.089 49.7311 282.349 48.7457 282.718 47.8207C283.926 44.7855 285.196 41.783 286.399 38.7452C287.068 37.0576 287.609 35.3021 288.279 33.6154C289.033 31.7189 289.867 29.8658 290.673 27.9975C290.894 27.4837 290.959 27.0791 290.608 26.4441C289.168 23.8354 289.378 20.848 291.142 18.6397C292.112 17.4245 293.279 16.3997 294.254 15.1877C295.955 13.0725 296.852 10.5871 296.366 7.56526C296.313 7.2428 296.216 6.92449 296.232 6.44503C296.974 7.09743 297.827 7.64628 298.437 8.41881C301.94 12.8591 303.718 17.7516 302.394 23.2922C301.889 25.4086 300.549 26.8734 298.708 27.6003C297.497 28.0781 296.916 28.9537 296.606 30.1716C296.16 31.9206 295.757 33.6865 295.366 35.4559C295.332 35.6082 295.492 35.9385 295.634 36.0221C298.865 37.9183 301.365 40.6432 303.278 44.0202C305.596 48.1138 306.519 52.4895 305.884 56.9697C304.943 63.6122 301.546 68.1469 295.784 70.5022C292.95 71.6601 289.852 72.0023 288.068 71.8403C288.18 71.4573 288.286 71.0966 288.392 70.7379C288.838 69.2218 289.295 67.7092 289.725 66.1867C289.843 65.7713 290.009 65.5818 290.458 65.5333C293.81 65.1664 296.715 63.8639 298.698 60.945C301.186 57.2818 301.495 53.1201 299.837 48.6232C298.763 45.7099 296.977 43.3609 294.58 41.5427C294.442 41.4373 294.304 41.3358 294.164 41.2329C294.106 41.1905 294.047 41.1487 293.9 41.0442C293.759 41.7039 293.623 42.2848 293.51 42.871C292.833 46.3903 292.157 49.911 291.496 53.4355C291.426 53.8092 291.215 54.2635 291.787 54.5328C292.314 54.7794 292.799 54.8105 292.991 54.1862C293.4 52.8485 293.821 51.5074 294.103 50.1252C294.478 48.2827 294.726 46.4005 295.039 44.476C296.639 46.0562 297.598 47.9765 298.282 50.0585C299.046 52.3818 298.977 54.6295 298.222 56.816C297.028 60.2757 294.024 61.6597 290.653 60.9087C289.356 60.6205 289.373 60.5733 289.016 61.8975C286.268 72.0758 282.329 81.562 276.659 90.0339C276.203 90.7139 275.688 91.3555 275.134 91.9406C274.614 92.4913 274.131 92.266 273.946 91.4454C273.88 91.1503 273.851 90.8447 273.831 90.5454C273.371 84.0476 273.858 77.7083 275.062 71.4812C275.786 67.7377 276.731 64.0858 277.959 60.5404C278.098 60.1376 278.182 59.7064 278.294 59.2803L278.292 59.2794ZM275.373 56.2941C276.988 55.296 278.77 55.1629 280.634 55.3946C282.841 55.6692 284.913 56.5323 286.968 57.5308C288.223 58.1408 289.514 58.6909 290.824 59.0903C291.757 59.3744 292.747 59.3606 293.71 59.4791C292.928 59.1862 292.137 59.1421 291.374 58.9229C290.606 58.7009 289.855 58.3417 289.121 57.9776C288.081 57.4618 287.07 56.8659 286.032 56.3409C283.528 55.0732 280.971 54.2505 278.292 54.7596C277.171 54.9717 276.071 55.2515 275.373 56.2941ZM296.894 12.7102C296.842 12.6873 296.789 12.663 296.736 12.6401C296.505 13.2079 296.29 13.7871 296.038 14.3432C295.291 15.9941 294.059 17.1777 292.785 18.3135C291.82 19.1757 291.077 20.199 290.747 21.5566C290.507 22.5423 290.576 23.6497 290.992 24.3568C290.807 21.5433 292.086 19.6912 293.784 18.0946C294.763 17.1734 295.654 16.1679 296.186 14.8518C296.466 14.1608 296.661 13.4252 296.894 12.7102ZM283.309 48.9419C283.399 48.9859 283.488 49.0299 283.577 49.0725C285.081 45.5307 286.586 41.989 288.091 38.4468C288.052 38.3836 288.013 38.3199 287.973 38.2553C287.818 38.3668 287.589 38.436 287.519 38.5969C286.283 41.4304 285.055 44.2693 283.854 47.1216C283.612 47.6936 283.489 48.3311 283.309 48.9386L283.309 48.9419ZM295.948 18.3119C295.894 18.2699 295.838 18.2285 295.783 18.1865C294.899 19.5867 293.656 20.7199 293.292 22.5045C294.177 21.1072 295.063 19.7093 295.948 18.3119ZM299.65 19.4983C299.383 20.1528 299.167 20.8422 298.834 21.4523C298.493 22.0795 298.042 22.6294 297.638 23.213C298.85 22.359 299.465 21.0814 299.65 19.4983ZM277.555 67.6199C277.051 68.0075 276.603 69.4579 276.845 70.2015C277.068 69.3877 277.292 68.5752 277.555 67.6199Z" fill="white"/>
<path d="M284.769 37.416C284.193 38.8987 283.569 40.1949 283.179 41.5875C282.743 43.1477 281.972 43.8687 280.408 44.2728C275.67 45.4972 272.859 48.9193 272.241 54.2308C271.894 57.2038 272.802 60.0306 274.626 62.5166C275.037 63.0764 275.121 63.527 274.942 64.1527C274.5 65.6901 274.126 67.2561 273.702 68.9012C271.881 67.2188 270.239 65.4634 269.13 63.2119C267.215 59.3298 266.317 55.3145 267.234 51.1892C268.516 45.4183 271.565 41.1827 276.581 38.8256C278.819 37.7742 281.227 37.2607 283.758 37.3061C284.05 37.3115 284.345 37.3691 284.769 37.416ZM279.115 39.886C274.927 39.8232 267.909 47.6192 268.555 51.6567C270.222 45.7577 273.847 41.9528 279.115 39.886Z" fill="white"/>
<path d="M59.604 36.6413H36.0013V85H25.2915V36.6413H1.64766V25.9315H59.604V36.6413ZM125.741 45.7858C125.741 48.2298 125.439 50.4129 124.835 52.3352C124.23 54.2575 123.407 55.9601 122.363 57.4429C121.347 58.8984 120.166 60.1479 118.821 61.1914C117.475 62.2349 116.061 63.0999 114.578 63.7864C113.123 64.4455 111.64 64.9261 110.129 65.2281C108.646 65.5302 107.246 65.6812 105.928 65.6812L128.295 85H111.736L89.41 65.6812H81.7072V54.9715H105.928C107.273 54.8616 108.495 54.587 109.594 54.1476C110.72 53.6808 111.681 53.0629 112.477 52.294C113.301 51.5251 113.933 50.6052 114.372 49.5342C114.811 48.4358 115.031 47.1863 115.031 45.7858V39.0304C115.031 38.4262 114.949 37.9731 114.784 37.6711C114.647 37.3415 114.454 37.1081 114.207 36.9708C113.988 36.8061 113.74 36.7099 113.466 36.6825C113.219 36.655 112.985 36.6413 112.766 36.6413H77.4233V85H66.7135V31.3276C66.7135 30.5862 66.8508 29.8859 67.1254 29.2268C67.4 28.5678 67.7708 27.9911 68.2376 27.4968C68.7319 27.0025 69.3086 26.618 69.9676 26.3434C70.6267 26.0688 71.3407 25.9315 72.1096 25.9315H112.766C115.155 25.9315 117.173 26.3709 118.821 27.2496C120.468 28.1009 121.8 29.1856 122.816 30.5038C123.86 31.7944 124.601 33.1949 125.041 34.7053C125.507 36.2156 125.741 37.6299 125.741 38.948V45.7858ZM193.566 79.6039C193.566 80.3728 193.429 81.0868 193.155 81.7459C192.88 82.4049 192.496 82.9816 192.001 83.4759C191.507 83.9428 190.93 84.3135 190.271 84.5881C189.612 84.8627 188.912 85 188.17 85H164.032C161.753 85 159.446 84.7529 157.112 84.2586C154.778 83.7643 152.512 83.0091 150.316 81.993C148.146 80.9495 146.1 79.6314 144.178 78.0387C142.256 76.4459 140.567 74.5648 139.111 72.3954C137.683 70.1986 136.558 67.6996 135.734 64.8986C134.91 62.0701 134.498 58.9258 134.498 55.4658V25.9315H145.208V55.4658C145.208 58.4865 145.62 61.0403 146.444 63.1274C147.295 65.2144 148.366 66.9582 149.656 68.3587C150.947 69.7592 152.361 70.8576 153.899 71.654C155.437 72.4504 156.892 73.0408 158.265 73.4252C159.666 73.8097 160.888 74.0568 161.931 74.1667C163.002 74.249 163.703 74.2902 164.032 74.2902H182.857V25.9315H193.566V79.6039ZM264.358 25.9315L236.389 82.8992C235.95 83.778 235.291 84.4782 234.412 85C233.561 85.5492 232.613 85.8238 231.57 85.8238C230.554 85.8238 229.606 85.5492 228.727 85C227.876 84.4782 227.217 83.778 226.75 82.8992L198.822 25.9315H210.809L231.57 68.4822L252.412 25.9315H264.358ZM348.38 47.0215L366.422 25.9315H381.045L355.63 55.5481L380.88 85H366.339L348.38 64.0748L330.503 85H315.921L341.13 55.5481L315.839 25.9315H330.338L348.38 47.0215Z" fill="white"/>
</svg>
