<svg width="279" height="75" viewBox="0 0 279 75" fill="none" xmlns="http://www.w3.org/2000/svg">
<path d="M188.036 40.0533C187.259 39.8618 186.818 40.1421 186.328 41.0938C185.302 40.1311 184.73 38.0016 185.832 36.5833C186.821 35.3099 188.218 34.9378 189.713 34.8181C190.31 34.7704 190.924 34.8503 191.531 34.8712C191.431 34.4981 191.417 34.4905 190.388 34.2645C190.601 33.6017 190.777 32.9359 191.026 32.3109C191.843 30.2601 192.701 28.2314 193.514 26.1788C193.965 25.0385 194.331 23.8524 194.784 22.7127C195.293 21.4313 195.856 20.1792 196.401 18.9168C196.551 18.5697 196.594 18.2963 196.357 17.8673C195.385 16.1047 195.526 14.0861 196.718 12.594C197.374 11.773 198.162 11.0805 198.821 10.2616C199.97 8.83238 200.576 7.15309 200.248 5.11129C200.212 4.89341 200.146 4.67834 200.158 4.35438C200.659 4.79519 201.235 5.16604 201.647 5.68802C204.014 8.68824 205.216 11.9939 204.321 15.7376C203.98 17.1676 203.074 18.1574 201.83 18.6485C201.012 18.9713 200.619 19.5629 200.41 20.3858C200.109 21.5676 199.836 22.7608 199.572 23.9563C199.549 24.0592 199.657 24.2824 199.753 24.3389C201.936 25.6201 203.626 27.4613 204.918 29.743C206.485 32.509 207.108 35.4655 206.679 38.4927C206.043 42.9809 203.748 46.0449 199.855 47.6363C197.94 48.4186 195.846 48.6498 194.641 48.5404C194.716 48.2816 194.788 48.0379 194.86 47.7955C195.161 46.7711 195.47 45.7491 195.761 44.7203C195.84 44.4397 195.953 44.3117 196.256 44.2789C198.521 44.031 200.484 43.1509 201.823 41.1787C203.505 38.7035 203.713 35.8916 202.593 32.8532C201.867 30.8847 200.661 29.2976 199.041 28.069C198.948 27.9978 198.854 27.9292 198.76 27.8597C198.721 27.8311 198.681 27.8028 198.582 27.7322C198.486 28.1779 198.394 28.5704 198.318 28.9665C197.861 31.3444 197.404 33.7233 196.957 36.1047C196.91 36.3572 196.767 36.6642 197.154 36.8461C197.51 37.0127 197.838 37.0337 197.967 36.6119C198.244 35.7081 198.528 34.8019 198.718 33.868C198.972 32.6231 199.14 31.3513 199.351 30.051C200.432 31.1187 201.08 32.4162 201.542 33.8229C202.058 35.3927 202.012 36.9114 201.502 38.3888C200.695 40.7265 198.666 41.6616 196.387 41.1541C195.511 40.9594 195.523 40.9275 195.282 41.8223C193.425 48.6995 190.763 55.1091 186.932 60.8333C186.624 61.2928 186.277 61.7263 185.902 62.1216C185.55 62.4937 185.224 62.3415 185.099 61.7871C185.055 61.5877 185.035 61.3812 185.021 61.179C184.71 56.7886 185.04 52.5052 185.853 48.2977C186.342 45.7683 186.981 43.3008 187.81 40.9053C187.904 40.6332 187.961 40.3418 188.037 40.0539L188.036 40.0533ZM186.064 38.0362C187.155 37.3618 188.359 37.2718 189.618 37.4284C191.109 37.614 192.509 38.1972 193.898 38.8718C194.746 39.2839 195.618 39.6557 196.503 39.9255C197.134 40.1175 197.802 40.1081 198.453 40.1882C197.925 39.9903 197.39 39.9605 196.875 39.8124C196.356 39.6624 195.849 39.4197 195.352 39.1737C194.65 38.8252 193.967 38.4225 193.266 38.0678C191.574 37.2113 189.846 36.6554 188.036 36.9994C187.278 37.1427 186.535 37.3317 186.064 38.0362ZM200.605 8.5876C200.569 8.57214 200.533 8.55571 200.498 8.54025C200.341 8.92391 200.196 9.31523 200.027 9.69098C199.521 10.8064 198.689 11.6062 197.829 12.3736C197.176 12.9562 196.674 13.6476 196.451 14.5649C196.289 15.2309 196.336 15.9791 196.617 16.4569C196.492 14.5559 197.356 13.3045 198.503 12.2257C199.165 11.6033 199.767 10.9239 200.127 10.0346C200.315 9.56777 200.447 9.07074 200.605 8.5876ZM191.426 33.0685C191.486 33.0982 191.547 33.1279 191.607 33.1567C192.623 30.7637 193.64 28.3706 194.657 25.9772C194.63 25.9345 194.604 25.8915 194.577 25.8478C194.472 25.9231 194.318 25.9699 194.27 26.0786C193.435 27.9931 192.605 29.9113 191.794 31.8385C191.631 32.225 191.547 32.6558 191.426 33.0662L191.426 33.0685ZM199.966 12.3725C199.929 12.3442 199.891 12.3162 199.854 12.2878C199.257 13.2339 198.417 13.9996 198.171 15.2054C198.769 14.2612 199.368 13.3167 199.966 12.3725ZM202.467 13.1741C202.286 13.6164 202.14 14.0822 201.916 14.4944C201.685 14.9182 201.38 15.2898 201.107 15.6841C201.926 15.1071 202.342 14.2438 202.467 13.1741ZM187.538 45.6887C187.197 45.9506 186.894 46.9306 187.058 47.4331C187.209 46.8832 187.36 46.3342 187.538 45.6887Z" fill="white"/>
<path d="M192.412 25.2807C192.023 26.2826 191.601 27.1584 191.338 28.0993C191.043 29.1535 190.522 29.6406 189.466 29.9137C186.264 30.741 184.365 33.0532 183.947 36.6421C183.713 38.6509 184.326 40.5609 185.559 42.2406C185.836 42.6188 185.893 42.9233 185.772 43.3461C185.474 44.3849 185.221 45.4429 184.934 46.5545C183.704 45.4177 182.595 44.2316 181.845 42.7104C180.551 40.0874 179.945 37.3743 180.564 34.5869C181.43 30.6876 183.49 27.8258 186.879 26.2331C188.392 25.5227 190.019 25.1758 191.729 25.2064C191.926 25.2101 192.126 25.249 192.412 25.2807ZM188.592 26.9496C185.762 26.9072 181.02 32.1748 181.457 34.9028C182.583 30.917 185.032 28.3461 188.592 26.9496Z" fill="white"/>
<path d="M40.2729 25.3252H24.3252V58H17.0889V25.3252H1.11328V18.0889H40.2729V25.3252ZM84.96 31.5039C84.96 33.1553 84.7559 34.6304 84.3477 35.9292C83.9395 37.228 83.3829 38.3784 82.6778 39.3804C81.9912 40.3638 81.1934 41.208 80.2842 41.9131C79.375 42.6182 78.4195 43.2026 77.4175 43.6665C76.4341 44.1118 75.4322 44.4365 74.4117 44.6406C73.4097 44.8447 72.4634 44.9468 71.5728 44.9468L86.6856 58H75.4971L60.4121 44.9468H55.2076V37.7104H71.5728C72.482 37.6362 73.3077 37.4507 74.0498 37.1538C74.8106 36.8384 75.46 36.4209 75.9981 35.9014C76.5547 35.3818 76.9815 34.7603 77.2784 34.0366C77.5752 33.2944 77.7237 32.4502 77.7237 31.5039V26.9395C77.7237 26.5312 77.668 26.2251 77.5567 26.021C77.4639 25.7983 77.334 25.6406 77.167 25.5479C77.0186 25.4365 76.8516 25.3716 76.6661 25.353C76.4991 25.3345 76.3413 25.3252 76.1929 25.3252H52.313V58H45.0767V21.7349C45.0767 21.2339 45.1695 20.7607 45.355 20.3154C45.5406 19.8701 45.7911 19.4805 46.1065 19.1465C46.4405 18.8125 46.8301 18.5527 47.2754 18.3672C47.7207 18.1816 48.2032 18.0889 48.7227 18.0889H76.1929C77.8072 18.0889 79.1709 18.3857 80.2842 18.9795C81.3975 19.5547 82.2974 20.2876 82.9839 21.1782C83.689 22.0503 84.19 22.9966 84.4869 24.0171C84.8023 25.0376 84.96 25.9932 84.96 26.8838V31.5039ZM130.788 54.354C130.788 54.8735 130.695 55.356 130.51 55.8013C130.324 56.2466 130.065 56.6362 129.731 56.9702C129.397 57.2856 129.007 57.5361 128.562 57.7217C128.116 57.9072 127.643 58 127.142 58H110.833C109.293 58 107.734 57.833 106.157 57.499C104.58 57.165 103.049 56.6548 101.565 55.9683C100.099 55.2632 98.7164 54.3726 97.4176 53.2964C96.1187 52.2202 94.9776 50.9492 93.9942 49.4834C93.0294 47.999 92.2686 46.3105 91.712 44.418C91.1553 42.5068 90.877 40.3823 90.877 38.0444V18.0889H98.1134V38.0444C98.1134 40.0854 98.3917 41.811 98.9483 43.2212C99.5235 44.6313 100.247 45.8096 101.119 46.7559C101.991 47.7021 102.947 48.4443 103.986 48.9824C105.025 49.5205 106.008 49.9194 106.936 50.1792C107.882 50.439 108.708 50.606 109.413 50.6802C110.137 50.7358 110.61 50.7637 110.833 50.7637H123.552V18.0889H130.788V54.354ZM178.62 18.0889L159.722 56.5806C159.425 57.1743 158.98 57.6475 158.386 58C157.811 58.3711 157.171 58.5566 156.466 58.5566C155.779 58.5566 155.139 58.3711 154.546 58C153.97 57.6475 153.525 57.1743 153.21 56.5806L134.339 18.0889H142.439L156.466 46.8394L170.549 18.0889H178.62ZM235.392 32.3389L247.582 18.0889H257.463L240.29 38.1001L257.351 58H247.527L235.392 43.8613L223.313 58H213.46L230.493 38.1001L213.405 18.0889H223.201L235.392 32.3389Z" fill="white"/>
</svg>
