<svg width="40" height="86" viewBox="0 0 40 86" fill="none" xmlns="http://www.w3.org/2000/svg">
<path d="M11.4194 52.8346C10.2699 52.5512 9.61739 52.9661 8.89252 54.3745C7.37424 52.9498 6.52727 49.7981 8.15783 47.699C9.62204 45.8143 11.6898 45.2637 13.9022 45.0865C14.785 45.016 15.6935 45.1342 16.5921 45.1651C16.4451 44.6129 16.4241 44.6017 14.9006 44.2671C15.2167 43.2862 15.4761 42.3008 15.8452 41.3759C17.0539 38.3407 18.3236 35.3382 19.5266 32.3003C20.1952 30.6128 20.7361 28.8573 21.4066 27.1706C22.1608 25.274 22.9941 23.421 23.8002 21.5526C24.0217 21.0389 24.0862 20.6343 23.7356 19.9993C22.2958 17.3906 22.5055 14.4032 24.2695 12.1949C25.2397 10.9797 26.4067 9.95489 27.3813 8.74292C29.0821 6.62765 29.9791 4.1423 29.4931 1.12044C29.4409 0.797975 29.3431 0.479669 29.3598 0.000203888C30.1012 0.652603 30.9548 1.20146 31.5644 1.97399C35.0678 6.41431 36.8457 11.3067 35.5216 16.8473C35.0164 18.9638 33.6769 20.4286 31.8356 21.1555C30.6244 21.6333 30.0435 22.5089 29.7335 23.7268C29.2876 25.4757 28.8844 27.2417 28.493 29.0111C28.459 29.1634 28.6197 29.4936 28.7614 29.5773C31.9923 31.4735 34.4924 34.1984 36.4054 37.5754C38.7238 41.669 39.6469 46.0447 39.0112 50.5249C38.0704 57.1674 34.6734 61.7021 28.9115 64.0574C26.0778 65.2152 22.9793 65.5575 21.195 65.3955C21.307 65.0125 21.4135 64.6518 21.5193 64.293C21.9651 62.777 22.4226 61.2644 22.8523 59.7418C22.97 59.3265 23.1365 59.137 23.5856 59.0885C26.9374 58.7215 29.8423 57.4191 31.8253 54.5001C34.3139 50.8369 34.6224 46.6752 32.9644 42.1784C31.89 39.2651 30.1043 36.9161 27.7072 35.0979C27.5698 34.9925 27.431 34.891 27.2916 34.788C27.2338 34.7457 27.1748 34.7039 27.0273 34.5993C26.8862 35.2591 26.7505 35.8399 26.6378 36.4262C25.9608 39.9455 25.2845 43.4662 24.623 46.9906C24.553 47.3643 24.3421 47.8187 24.9141 48.088C25.441 48.3346 25.9265 48.3657 26.118 47.7414C26.5274 46.4037 26.9488 45.0626 27.23 43.6804C27.6055 41.8379 27.8534 39.9557 28.1665 38.0311C29.7662 39.6113 30.7251 41.5317 31.4095 43.6136C32.173 45.937 32.1049 48.1846 31.3492 50.3712C30.1556 53.8309 27.1516 55.2149 23.7801 54.4639C22.4833 54.1756 22.5006 54.1285 22.1433 55.4527C19.395 65.631 15.4562 75.1172 9.78598 83.5891C9.33047 84.2691 8.8159 84.9106 8.26137 85.4957C7.7413 86.0464 7.25885 85.8211 7.07342 85.0006C7.0075 84.7055 6.97864 84.3998 6.95837 84.1006C6.4981 77.6028 6.98543 71.2635 8.18927 65.0364C8.91295 61.2928 9.85866 57.6409 11.086 54.0955C11.2252 53.6928 11.3096 53.2615 11.4213 52.8354L11.4194 52.8346ZM8.50068 49.8493C10.1158 48.8512 11.8979 48.718 13.7619 48.9498C15.9682 49.2244 18.0405 50.0875 20.0955 51.086C21.3508 51.696 22.6418 52.2461 23.951 52.6455C24.8846 52.9296 25.8741 52.9157 26.8375 53.0342C26.0557 52.7414 25.2641 52.6973 24.5014 52.478C23.733 52.2561 22.9827 51.8969 22.248 51.5328C21.2084 51.017 20.1974 50.4211 19.1599 49.8961C16.6559 48.6284 14.0984 47.8057 11.4194 48.3148C10.2983 48.5269 9.19817 48.8067 8.50068 49.8493ZM30.0218 6.26538C29.9692 6.24249 29.9161 6.21818 29.8635 6.19529C29.632 6.76311 29.4171 7.34226 29.1659 7.89838C28.4183 9.54924 27.186 10.7328 25.9129 11.8687C24.9473 12.7309 24.2047 13.7542 23.8747 15.1118C23.6347 16.0974 23.7034 17.2048 24.1197 17.912C23.9343 15.0985 25.2137 13.2464 26.9112 11.6498C27.8906 10.7286 28.7814 9.72308 29.3139 8.40694C29.593 7.71602 29.7883 6.98041 30.0218 6.26538ZM16.4366 42.4971C16.5261 42.5411 16.6156 42.5851 16.7046 42.6277C18.2089 39.0859 19.7132 35.5442 21.2188 32.0019C21.179 31.9388 21.1404 31.8751 21.1 31.8105C20.9453 31.9219 20.7166 31.9912 20.6463 32.1521C19.4109 34.9855 18.1823 37.8245 16.9814 40.6767C16.7398 41.2488 16.616 41.8862 16.4367 42.4937L16.4366 42.4971ZM29.0757 11.8671C29.0211 11.8251 28.9652 11.7837 28.9106 11.7417C28.0268 13.1419 26.7837 14.2751 26.4194 16.0597C27.3044 14.6623 28.1907 13.2644 29.0757 11.8671ZM32.7778 13.0535C32.5101 13.708 32.294 14.3974 31.9617 15.0075C31.6203 15.6347 31.1696 16.1846 30.7655 16.7682C31.9774 15.9142 32.5927 14.6365 32.7778 13.0535ZM10.6823 61.175C10.1782 61.5626 9.73017 63.0131 9.97222 63.7567C10.1954 62.9428 10.4192 62.1304 10.6823 61.175Z" fill="white"/>
<path d="M17.8968 30.9712C17.3201 32.4539 16.6963 33.7501 16.3069 35.1427C15.8707 36.7029 15.0992 37.4239 13.5358 37.828C8.79724 39.0523 5.98688 42.4744 5.36796 47.786C5.02189 50.759 5.92966 53.5858 7.75353 56.0718C8.16436 56.6315 8.24809 57.0822 8.06898 57.7079C7.62773 59.2453 7.25325 60.8113 6.82899 62.4563C5.0087 60.774 3.36662 59.0186 2.25714 56.7671C0.342829 52.885 -0.55508 48.8697 0.361076 44.7444C1.64347 38.9734 4.69197 34.7379 9.7081 32.3807C11.9466 31.3293 14.3543 30.8158 16.8851 30.8613C17.1777 30.8667 17.4728 30.9243 17.8968 30.9712ZM12.2422 33.4412C8.05429 33.3784 1.03602 41.1744 1.68256 45.2119C3.3497 39.3129 6.97412 35.508 12.2422 33.4412Z" fill="white"/>
</svg>
